0
SECTION
2
ENTITIES
0
POINT
8
KP1B
10
23447570.769
20
6707522.831
30
13.51
0
POINT
8
KP2B
10
23447565.533
20
6707524.978
30
12.972
0
POINT
8
KP3B
10
23447566.326
20
6707539.391
30
16.175
0
POINT
8
KP4B
10
23447581.125
20
6707540.783
30
15.863
0
POINT
8
KP5B
10
23447588.755
20
6707529.563
30
15.727
0
POINT
8
KP6B
10
23447601.562
20
6707557.232
30
15.824
0
POINT
8
KP7B
10
23447586.27
20
6707568.733
30
16.583
0
POINT
8
KP8B
10
23447573.381
20
6707557.572
30
17.654
0
POINT
8
KP9B
10
23447565.123
20
6707574.12
30
17.254
0
POINT
8
ASP
10
23447574.872
20
6707555.061
30
18.346
0
POINT
8
KP4
10
23447581.091
20
6707540.726
30
15.853
0
POINT
8
KP1
10
23447570.768
20
6707522.818
30
13.496
0
POINT
8
KP6
10
23447601.507
20
6707557.235
30
15.811
0
POINT
8
KP7
10
23447586.224
20
6707568.707
30
16.585
0
POINT
8
KP8
10
23447573.492
20
6707557.628
30
17.688
0
POINT
8
KP9
10
23447565.11
20
6707574.086
30
17.246
0
POINT
8
ROYK_PI
10
23447578.639
20
6707559.142
30
17.273
0
POLYLINE
8
ROYKKIO
66
1
70
8
0
VERTEX
8
ROYKKIO
70
32
10
23447579.509
20
6707559.157
30
17.209
0
VERTEX
8
ROYKKIO
70
32
10
23447580.278
20
6707558.34
30
17.189
0
VERTEX
8
ROYKKIO
70
32
10
23447581.718
20
6707557.514
30
16.859
0
VERTEX
8
ROYKKIO
70
32
10
23447582.092
20
6707557.419
30
16.843
0
VERTEX
8
ROYKKIO
70
32
10
23447582.141
20
6707556.714
30
16.813
0
VERTEX
8
ROYKKIO
70
32
10
23447581.994
20
6707555.903
30
16.691
0
VERTEX
8
ROYKKIO
70
32
10
23447581.701
20
6707555.108
30
16.685
0
VERTEX
8
ROYKKIO
70
32
10
23447581.395
20
6707554.519
30
16.703
0
VERTEX
8
ROYKKIO
70
32
10
23447580.963
20
6707554.13
30
16.723
0
VERTEX
8
ROYKKIO
70
32
10
23447580.146
20
6707554.029
30
16.781
0
VERTEX
8
ROYKKIO
70
32
10
23447579.261
20
6707554.215
30
16.826
0
VERTEX
8
ROYKKIO
70
32
10
23447578.422
20
6707554.654
30
16.867
0
VERTEX
8
ROYKKIO
70
32
10
23447577.965
20
6707555.371
30
16.981
0
VERTEX
8
ROYKKIO
70
32
10
23447577.627
20
6707556.357
30
17.098
0
VERTEX
8
ROYKKIO
70
32
10
23447577.507
20
6707557.507
30
17.222
0
VERTEX
8
ROYKKIO
70
32
10
23447577.096
20
6707558.532
30
17.211
0
VERTEX
8
ROYKKIO
70
32
10
23447577.318
20
6707559.002
30
17.231
0
VERTEX
8
ROYKKIO
70
32
10
23447577.884
20
6707559.177
30
17.202
0
VERTEX
8
ROYKKIO
70
32
10
23447578.577
20
6707559.521
30
17.17
0
VERTEX
8
ROYKKIO
70
32
10
23447579.144
20
6707559.369
30
17.19
0
SEQEND
0
POINT
8
ROYK_PI
10
23447579.395
20
6707558.049
30
17.407
0
POINT
8
ROYK_PI
10
23447580.066
20
6707557.112
30
17.354
0
POINT
8
ROYK_PI
10
23447578.996
20
6707556.304
30
17.384
0
POINT
8
ROYK_PI
10
23447579.237
20
6707554.944
30
17.118
0
POINT
8
ROYK_PI
10
23447580.829
20
6707556.146
30
17.01
0
POLYLINE
8
KUMPU
66
1
70
8
0
VERTEX
8
KUMPU
70
32
10
23447588.183
20
6707556.281
30
16.369
0
VERTEX
8
KUMPU
70
32
10
23447588.728
20
6707556.979
30
16.365
0
VERTEX
8
KUMPU
70
32
10
23447589.367
20
6707557.325
30
16.277
0
VERTEX
8
KUMPU
70
32
10
23447589.995
20
6707557.379
30
16.209
0
VERTEX
8
KUMPU
70
32
10
23447590.465
20
6707557.271
30
16.129
0
VERTEX
8
KUMPU
70
32
10
23447590.654
20
6707556.885
30
16.133
0
VERTEX
8
KUMPU
70
32
10
23447590.725
20
6707556.16
30
16.12
0
VERTEX
8
KUMPU
70
32
10
23447590.382
20
6707555.268
30
16.174
0
VERTEX
8
KUMPU
70
32
10
23447589.948
20
6707554.54
30
16.216
0
VERTEX
8
KUMPU
70
32
10
23447589.252
20
6707553.569
30
16.173
0
VERTEX
8
KUMPU
70
32
10
23447588.763
20
6707553.42
30
16.196
0
VERTEX
8
KUMPU
70
32
10
23447588.157
20
6707553.699
30
16.196
0
VERTEX
8
KUMPU
70
32
10
23447587.842
20
6707554.356
30
16.235
0
VERTEX
8
KUMPU
70
32
10
23447587.804
20
6707555.284
30
16.353
0
VERTEX
8
KUMPU
70
32
10
23447588.052
20
6707556.116
30
16.354
0
SEQEND
0
POLYLINE
8
VKK
66
1
70
8
0
VERTEX
8
VKK
70
32
10
23447576.182
20
6707540.057
30
15.466
0
VERTEX
8
VKK
70
32
10
23447576.015
20
6707539.234
30
15.394
0
VERTEX
8
VKK
70
32
10
23447576.502
20
6707539.051
30
15.41
0
VERTEX
8
VKK
70
32
10
23447576.529
20
6707538.423
30
15.323
0
VERTEX
8
VKK
70
32
10
23447577.16
20
6707538.487
30
15.327
0
VERTEX
8
VKK
70
32
10
23447577.303
20
6707538.909
30
15.403
0
VERTEX
8
VKK
70
32
10
23447577.324
20
6707539.701
30
15.497
0
SEQEND
0
POLYLINE
8
VKK
66
1
70
8
0
VERTEX
8
VKK
70
32
10
23447575.124
20
6707536.444
30
15.159
0
VERTEX
8
VKK
70
32
10
23447575.545
20
6707536.335
30
15.209
0
VERTEX
8
VKK
70
32
10
23447575.468
20
6707535.759
30
15.147
0
VERTEX
8
VKK
70
32
10
23447575.045
20
6707535.803
30
15.128
0
VERTEX
8
VKK
70
32
10
23447575.096
20
6707536.178
30
15.144
0
SEQEND
0
POINT
8
ASP
10
23447576.929
20
6707552.271
30
18.017
0
POLYLINE
8
KIVI
66
1
70
8
0
VERTEX
8
KIVI
70
32
10
23447574.21
20
6707532.603
30
14.892
0
VERTEX
8
KIVI
70
32
10
23447574.293
20
6707532.687
30
14.89
0
VERTEX
8
KIVI
70
32
10
23447574.152
20
6707532.897
30
14.868
0
VERTEX
8
KIVI
70
32
10
23447574.09
20
6707533.325
30
14.908
0
VERTEX
8
KIVI
70
32
10
23447574.002
20
6707533.363
30
14.931
0
VERTEX
8
KIVI
70
32
10
23447573.671
20
6707533.358
30
14.97
0
VERTEX
8
KIVI
70
32
10
23447573.629
20
6707533.243
30
14.953
0
VERTEX
8
KIVI
70
32
10
23447573.557
20
6707533.105
30
14.934
0
VERTEX
8
KIVI
70
32
10
23447573.376
20
6707532.792
30
14.799
0
VERTEX
8
KIVI
70
32
10
23447573.287
20
6707532.62
30
14.713
0
VERTEX
8
KIVI
70
32
10
23447573.379
20
6707532.569
30
14.745
0
VERTEX
8
KIVI
70
32
10
23447573.631
20
6707532.553
30
14.853
0
VERTEX
8
KIVI
70
32
10
23447573.912
20
6707532.608
30
14.905
0
VERTEX
8
KIVI
70
32
10
23447574.039
20
6707532.633
30
14.892
0
VERTEX
8
KIVI
70
32
10
23447574.106
20
6707532.649
30
14.905
0
SEQEND
0
POINT
8
KP3
10
23447566.325
20
6707539.414
30
16.171
0
POINT
8
KP5
10
23447588.713
20
6707529.507
30
15.717
0
POLYLINE
8
OJA1
66
1
70
8
0
VERTEX
8
OJA1
70
32
10
23447573.028
20
6707537.989
30
15.349
0
SEQEND
0
POINT
8
M101
10
23447573.212
20
6707538.669
30
15.439
0
POLYLINE
8
OJA1
66
1
70
8
0
VERTEX
8
OJA1
70
32
10
23447573.028
20
6707537.99
30
15.345
0
VERTEX
8
OJA1
70
32
10
23447575.03
20
6707538.007
30
15.282
0
VERTEX
8
OJA1
70
32
10
23447576.008
20
6707537.983
30
15.269
0
VERTEX
8
OJA1
70
32
10
23447577.007
20
6707538.015
30
15.273
0
VERTEX
8
OJA1
70
32
10
23447579.934
20
6707537.991
30
15.073
0
VERTEX
8
OJA1
70
32
10
23447579.887
20
6707538.968
30
15.192
0
VERTEX
8
OJA1
70
32
10
23447577.208
20
6707539.048
30
15.385
0
VERTEX
8
OJA1
70
32
10
23447574.985
20
6707539.002
30
15.472
0
VERTEX
8
OJA1
70
32
10
23447573.062
20
6707539.063
30
15.527
0
VERTEX
8
OJA1
70
32
10
23447573.025
20
6707537.988
30
15.344
0
SEQEND
0
POINT
8
M101
10
23447574.334
20
6707538.605
30
15.424
0
POINT
8
M101
10
23447575.22
20
6707538.675
30
15.345
0
POINT
8
M101
10
23447575.614
20
6707538.197
30
15.247
0
POINT
8
M101
10
23447576.546
20
6707538.084
30
15.274
0
POINT
8
M101
10
23447577.334
20
6707538.196
30
15.258
0
POINT
8
M101
10
23447579.651
20
6707538.365
30
15.09
0
POLYLINE
8
OJA2
66
1
70
8
0
VERTEX
8
OJA2
70
32
10
23447574.992
20
6707535.986
30
15.162
0
VERTEX
8
OJA2
70
32
10
23447575.0
20
6707536.968
30
15.231
0
VERTEX
8
OJA2
70
32
10
23447574.988
20
6707538.005
30
15.317
0
VERTEX
8
OJA2
70
32
10
23447574.984
20
6707539.01
30
15.481
0
VERTEX
8
OJA2
70
32
10
23447575.016
20
6707540.023
30
15.624
0
VERTEX
8
OJA2
70
32
10
23447575.0
20
6707542.013
30
15.804
0
VERTEX
8
OJA2
70
32
10
23447574.992
20
6707542.962
30
15.833
0
VERTEX
8
OJA2
70
32
10
23447575.02
20
6707544.035
30
15.872
0
VERTEX
8
OJA2
70
32
10
23447575.992
20
6707544.003
30
15.837
0
VERTEX
8
OJA2
70
32
10
23447575.987
20
6707542.007
30
15.686
0
VERTEX
8
OJA2
70
32
10
23447575.981
20
6707540.999
30
15.68
0
VERTEX
8
OJA2
70
32
10
23447576.015
20
6707537.976
30
15.251
0
VERTEX
8
OJA2
70
32
10
23447575.994
20
6707535.97
30
15.199
0
VERTEX
8
OJA2
70
32
10
23447575.004
20
6707535.994
30
15.164
0
SEQEND
0
POINT
8
M101
10
23447571.542
20
6707538.565
30
15.347
0
POLYLINE
8
OJA1
66
1
70
8
0
VERTEX
8
OJA1
70
32
10
23447571.04
20
6707539.021
30
15.46
0
VERTEX
8
OJA1
70
32
10
23447571.024
20
6707537.992
30
15.333
0
VERTEX
8
OJA1
70
32
10
23447572.958
20
6707538.005
30
15.365
0
VERTEX
8
OJA1
70
32
10
23447573.017
20
6707539.047
30
15.537
0
VERTEX
8
OJA1
70
32
10
23447571.043
20
6707539.013
30
15.461
0
SEQEND
0
POINT
8
M101
10
23447571.426
20
6707538.101
30
15.286
0
POINT
8
M101
10
23447572.074
20
6707538.727
30
15.382
0
POINT
8
M101
10
23447572.165
20
6707538.172
30
15.273
0
POINT
8
M101
10
23447572.863
20
6707538.132
30
15.335
0
POINT
8
M101
10
23447572.85
20
6707538.868
30
15.437
0
POINT
8
M101
10
23447575.156
20
6707536.747
30
15.156
0
POINT
8
M101
10
23447575.738
20
6707536.238
30
15.124
0
POINT
8
M101
10
23447575.722
20
6707536.802
30
15.157
0
POINT
8
M101
10
23447575.404
20
6707537.845
30
15.218
0
POINT
8
M101
10
23447575.317
20
6707539.96
30
15.558
0
POINT
8
M101
10
23447575.62
20
6707541.235
30
15.664
0
POINT
8
M101
10
23447575.5
20
6707542.277
30
15.708
0
POINT
8
M101
10
23447575.104
20
6707543.189
30
15.762
0
POLYLINE
8
KIVI
66
1
70
8
0
VERTEX
8
KIVI
70
32
10
23447575.209
20
6707543.962
30
15.847
0
VERTEX
8
KIVI
70
32
10
23447575.135
20
6707543.494
30
15.768
0
VERTEX
8
KIVI
70
32
10
23447575.311
20
6707543.282
30
15.767
0
VERTEX
8
KIVI
70
32
10
23447575.717
20
6707543.378
30
15.789
0
VERTEX
8
KIVI
70
32
10
23447575.91
20
6707543.816
30
15.827
0
VERTEX
8
KIVI
70
32
10
23447575.845
20
6707544.013
30
15.898
0
VERTEX
8
KIVI
70
32
10
23447575.202
20
6707543.99
30
15.871
0
SEQEND
0
POLYLINE
8
KIVI
66
1
70
8
0
VERTEX
8
KIVI
70
32
10
23447576.17
20
6707540.089
30
15.502
0
VERTEX
8
KIVI
70
32
10
23447575.934
20
6707539.883
30
15.504
0
VERTEX
8
KIVI
70
32
10
23447575.45
20
6707539.655
30
15.478
0
VERTEX
8
KIVI
70
32
10
23447575.408
20
6707539.941
30
15.579
0
VERTEX
8
KIVI
70
32
10
23447575.519
20
6707540.334
30
15.621
0
VERTEX
8
KIVI
70
32
10
23447575.831
20
6707540.48
30
15.608
0
VERTEX
8
KIVI
70
32
10
23447576.124
20
6707540.303
30
15.579
0
VERTEX
8
KIVI
70
32
10
23447576.193
20
6707540.121
30
15.511
0
SEQEND
0
POLYLINE
8
KIVI
66
1
70
8
0
VERTEX
8
KIVI
70
32
10
23447575.212
20
6707537.457
30
15.205
0
VERTEX
8
KIVI
70
32
10
23447575.712
20
6707537.69
30
15.185
0
VERTEX
8
KIVI
70
32
10
23447575.952
20
6707537.393
30
15.291
0
VERTEX
8
KIVI
70
32
10
23447576.088
20
6707537.117
30
15.262
0
VERTEX
8
KIVI
70
32
10
23447575.858
20
6707536.917
30
15.151
0
VERTEX
8
KIVI
70
32
10
23447575.338
20
6707537.029
30
15.15
0
VERTEX
8
KIVI
70
32
10
23447575.204
20
6707537.283
30
15.186
0
VERTEX
8
KIVI
70
32
10
23447575.199
20
6707537.445
30
15.207
0
SEQEND
0
POINT
8
101LUU
10
23447575.706
20
6707541.205
30
15.598
0
POLYLINE
8
KIVI
66
1
70
8
0
VERTEX
8
KIVI
70
32
10
23447575.554
20
6707536.56
30
15.161
0
VERTEX
8
KIVI
70
32
10
23447575.601
20
6707536.405
30
15.125
0
VERTEX
8
KIVI
70
32
10
23447575.561
20
6707536.176
30
15.138
0
VERTEX
8
KIVI
70
32
10
23447575.37
20
6707536.146
30
15.094
0
VERTEX
8
KIVI
70
32
10
23447575.1
20
6707536.239
30
15.105
0
VERTEX
8
KIVI
70
32
10
23447575.125
20
6707536.469
30
15.122
0
VERTEX
8
KIVI
70
32
10
23447575.359
20
6707536.586
30
15.139
0
VERTEX
8
KIVI
70
32
10
23447575.544
20
6707536.562
30
15.165
0
SEQEND
0
POINT
8
101META
10
23447572.903
20
6707538.165
30
15.288
0
POINT
8
FOTO1
10
23447576.101
20
6707536.168
30
15.219
0
POINT
8
FOTO1
10
23447577.333
20
6707539.07
30
15.446
0
POINT
8
FOTO1
10
23447576.025
20
6707541.505
30
15.709
0
POINT
8
FOTO1
10
23447576.082
20
6707544.812
30
15.898
0
POINT
8
FOTO1
10
23447574.931
20
6707542.868
30
15.846
0
POINT
8
FOTO1
10
23447574.851
20
6707540.048
30
15.677
0
POINT
8
FOTO1
10
23447573.465
20
6707539.108
30
15.57
0
POINT
8
FOTO1
10
23447571.629
20
6707537.785
30
15.295
0
POINT
8
FOTO1
10
23447573.216
20
6707537.935
30
15.383
0
POINT
8
FOTO1
10
23447574.893
20
6707537.611
30
15.304
0
POINT
8
FOTO1
10
23447576.542
20
6707537.903
30
15.292
0
POINT
8
FOTO1
10
23447579.91
20
6707538.842
30
15.199
0
POINT
8
ASP
10
23447576.847
20
6707551.733
30
18.062
0
POINT
8
M102PI
10
23447575.576
20
6707542.883
30
15.659
0
POINT
8
M102PI
10
23447575.709
20
6707541.66
30
15.635
0
POINT
8
M102PI
10
23447575.276
20
6707541.021
30
15.622
0
POINT
8
M102PI
10
23447575.694
20
6707540.578
30
15.551
0
POINT
8
M102PI
10
23447575.309
20
6707539.851
30
15.466
0
POINT
8
M102PI
10
23447574.506
20
6707539.428
30
15.467
0
POINT
8
M102PI
10
23447574.992
20
6707538.592
30
15.3
0
POINT
8
M102PI
10
23447574.732
20
6707538.256
30
15.307
0
POINT
8
M102PI
10
23447574.428
20
6707538.762
30
15.378
0
POINT
8
M102PI
10
23447575.787
20
6707538.377
30
15.263
0
POINT
8
M102PI
10
23447575.207
20
6707537.63
30
15.194
0
POINT
8
M102PI
10
23447575.287
20
6707536.762
30
15.129
0
POINT
8
M102PI
10
23447575.787
20
6707536.207
30
15.116
0
POINT
8
M102PI
10
23447574.113
20
6707538.359
30
15.311
0
POINT
8
M102PI
10
23447573.513
20
6707538.493
30
15.32
0
POINT
8
M102PI
10
23447572.253
20
6707538.367
30
15.321
0
POINT
8
M102PI
10
23447571.635
20
6707538.607
30
15.319
0
POINT
8
M102PI
10
23447571.203
20
6707538.085
30
15.255
0
POINT
8
M102PI
10
23447576.654
20
6707538.194
30
15.209
0
POINT
8
M102PI
10
23447577.527
20
6707538.181
30
15.246
0
POINT
8
M102PI
10
23447577.847
20
6707538.583
30
15.285
0
POINT
8
M102PI
10
23447579.708
20
6707538.359
30
15.042
0
POINT
8
M101
10
23447575.737
20
6707544.366
30
15.821
0
POINT
8
M101
10
23447575.622
20
6707544.929
30
15.84
0
POINT
8
M101
10
23447575.624
20
6707545.646
30
15.887
0
POINT
8
FOTOG2
10
23447586.859
20
6707556.537
30
16.398
0
POINT
8
FOTOG2
10
23447587.406
20
6707558.124
30
16.381
0
POINT
8
FOTOG2
10
23447589.846
20
6707558.142
30
16.163
0
POINT
8
FOTOG2
10
23447590.551
20
6707557.687
30
16.117
0
POINT
8
FOTOG2
10
23447591.135
20
6707556.003
30
16.073
0
POINT
8
FOTOG2
10
23447590.597
20
6707554.859
30
16.155
0
POINT
8
FOTOG2
10
23447586.79
20
6707554.905
30
16.431
0
POINT
8
FOTOG3
10
23447580.084
20
6707558.8
30
17.246
0
POINT
8
FOTOG3
10
23447579.949
20
6707560.501
30
17.225
0
POINT
8
FOTOG3
10
23447576.899
20
6707559.074
30
17.244
0
POINT
8
FOTOG3
10
23447576.811
20
6707557.562
30
17.137
0
POINT
8
FOTOG3
10
23447577.996
20
6707556.898
30
17.203
0
POINT
8
102LUU
10
23447575.593
20
6707540.771
30
15.553
0
POLYLINE
8
M101KI
66
1
70
8
0
VERTEX
8
M101KI
70
32
10
23447574.926
20
6707539.074
30
15.4
0
VERTEX
8
M101KI
70
32
10
23447574.925
20
6707539.075
30
15.398
0
VERTEX
8
M101KI
70
32
10
23447574.991
20
6707538.925
30
15.441
0
VERTEX
8
M101KI
70
32
10
23447574.883
20
6707538.764
30
15.355
0
VERTEX
8
M101KI
70
32
10
23447574.77
20
6707538.851
30
15.357
0
VERTEX
8
M101KI
70
32
10
23447574.76
20
6707538.943
30
15.412
0
SEQEND
0
POLYLINE
8
M101KI
66
1
70
8
0
VERTEX
8
M101KI
70
32
10
23447575.532
20
6707538.876
30
15.419
0
VERTEX
8
M101KI
70
32
10
23447575.608
20
6707538.824
30
15.398
0
VERTEX
8
M101KI
70
32
10
23447575.757
20
6707538.611
30
15.356
0
VERTEX
8
M101KI
70
32
10
23447575.725
20
6707538.516
30
15.304
0
VERTEX
8
M101KI
70
32
10
23447575.671
20
6707538.369
30
15.292
0
VERTEX
8
M101KI
70
32
10
23447575.62
20
6707538.512
30
15.313
0
VERTEX
8
M101KI
70
32
10
23447575.499
20
6707538.778
30
15.372
0
SEQEND
0
POLYLINE
8
M101KI
66
1
70
8
0
VERTEX
8
M101KI
70
32
10
23447576.082
20
6707538.566
30
15.338
0
VERTEX
8
M101KI
70
32
10
23447576.233
20
6707538.563
30
15.344
0
VERTEX
8
M101KI
70
32
10
23447576.368
20
6707538.55
30
15.243
0
VERTEX
8
M101KI
70
32
10
23447576.418
20
6707538.405
30
15.241
0
VERTEX
8
M101KI
70
32
10
23447576.321
20
6707538.333
30
15.285
0
VERTEX
8
M101KI
70
32
10
23447576.145
20
6707538.311
30
15.271
0
VERTEX
8
M101KI
70
32
10
23447576.086
20
6707538.324
30
15.287
0
VERTEX
8
M101KI
70
32
10
23447576.07
20
6707538.439
30
15.31
0
SEQEND
0
POINT
8
M101KPI
10
23447575.63
20
6707538.607
30
15.472
0
POLYLINE
8
M101KI
66
1
70
8
0
VERTEX
8
M101KI
70
32
10
23447576.086
20
6707538.567
30
15.339
0
VERTEX
8
M101KI
70
32
10
23447576.23
20
6707538.526
30
15.339
0
VERTEX
8
M101KI
70
32
10
23447576.405
20
6707538.512
30
15.274
0
VERTEX
8
M101KI
70
32
10
23447576.446
20
6707538.607
30
15.237
0
VERTEX
8
M101KI
70
32
10
23447576.308
20
6707538.697
30
15.264
0
VERTEX
8
M101KI
70
32
10
23447576.187
20
6707538.769
30
15.199
0
VERTEX
8
M101KI
70
32
10
23447576.051
20
6707538.839
30
15.315
0
VERTEX
8
M101KI
70
32
10
23447576.001
20
6707538.795
30
15.283
0
VERTEX
8
M101KI
70
32
10
23447575.974
20
6707538.618
30
15.343
0
VERTEX
8
M101KI
70
32
10
23447576.039
20
6707538.525
30
15.322
0
VERTEX
8
M101KI
70
32
10
23447576.078
20
6707538.496
30
15.334
0
VERTEX
8
M101KI
70
32
10
23447576.148
20
6707538.517
30
15.341
0
SEQEND
0
POINT
8
M101KPI
10
23447576.194
20
6707538.47
30
15.442
0
POINT
8
M101KPI
10
23447576.114
20
6707538.677
30
15.392
0
POINT
8
M101KPO
10
23447575.582
20
6707538.716
30
15.373
0
POINT
8
M101KPO
10
23447576.172
20
6707538.427
30
15.331
0
POINT
8
M101KPO
10
23447576.028
20
6707538.654
30
15.317
0
POINT
8
M101KPI
10
23447574.858
20
6707538.895
30
15.512
0
POINT
8
M101KPO
10
23447574.8
20
6707538.925
30
15.387
0
POLYLINE
8
M101KI
66
1
70
8
0
VERTEX
8
M101KI
70
32
10
23447574.739
20
6707539.052
30
15.409
0
VERTEX
8
M101KI
70
32
10
23447574.842
20
6707539.057
30
15.399
0
VERTEX
8
M101KI
70
32
10
23447574.911
20
6707539.015
30
15.406
0
VERTEX
8
M101KI
70
32
10
23447574.957
20
6707538.892
30
15.443
0
VERTEX
8
M101KI
70
32
10
23447574.823
20
6707538.75
30
15.331
0
VERTEX
8
M101KI
70
32
10
23447574.724
20
6707538.793
30
15.353
0
VERTEX
8
M101KI
70
32
10
23447574.74
20
6707538.854
30
15.386
0
SEQEND
0
POINT
8
102KERA
10
23447575.144
20
6707543.019
30
15.711
0
POLYLINE
8
M102
66
1
70
8
0
VERTEX
8
M102
70
32
10
23447575.976
20
6707543.145
30
15.7
0
VERTEX
8
M102
70
32
10
23447575.645
20
6707543.157
30
15.671
0
VERTEX
8
M102
70
32
10
23447575.139
20
6707543.122
30
15.701
0
SEQEND
0
POLYLINE
8
M102KI
66
1
70
8
0
VERTEX
8
M102KI
70
32
10
23447578.17
20
6707538.723
30
15.282
0
VERTEX
8
M102KI
70
32
10
23447578.249
20
6707538.641
30
15.28
0
VERTEX
8
M102KI
70
32
10
23447578.241
20
6707538.59
30
15.259
0
SEQEND
0
POLYLINE
8
M102KI
66
1
70
8
0
VERTEX
8
M102KI
70
32
10
23447578.186
20
6707538.652
30
15.282
0
VERTEX
8
M102KI
70
32
10
23447578.112
20
6707538.643
30
15.27
0
VERTEX
8
M102KI
70
32
10
23447578.056
20
6707538.639
30
15.263
0
VERTEX
8
M102KI
70
32
10
23447578.075
20
6707538.487
30
15.257
0
VERTEX
8
M102KI
70
32
10
23447578.151
20
6707538.495
30
15.25
0
VERTEX
8
M102KI
70
32
10
23447578.216
20
6707538.525
30
15.273
0
VERTEX
8
M102KI
70
32
10
23447578.194
20
6707538.606
30
15.285
0
SEQEND
0
POLYLINE
8
M102KI
66
1
70
8
0
VERTEX
8
M102KI
70
32
10
23447577.862
20
6707538.288
30
15.227
0
VERTEX
8
M102KI
70
32
10
23447577.885
20
6707538.281
30
15.237
0
VERTEX
8
M102KI
70
32
10
23447577.874
20
6707538.221
30
15.238
0
VERTEX
8
M102KI
70
32
10
23447577.795
20
6707538.19
30
15.241
0
VERTEX
8
M102KI
70
32
10
23447577.731
20
6707538.194
30
15.223
0
VERTEX
8
M102KI
70
32
10
23447577.755
20
6707538.245
30
15.233
0
SEQEND
0
POINT
8
M102KPI
10
23447577.8
20
6707538.231
30
15.286
0
POLYLINE
8
M102KI
66
1
70
8
0
VERTEX
8
M102KI
70
32
10
23447578.275
20
6707538.294
30
15.235
0
VERTEX
8
M102KI
70
32
10
23447578.277
20
6707538.247
30
15.233
0
SEQEND
0
POINT
8
M102KPI
10
23447578.08
20
6707538.542
30
15.369
0
POINT
8
M102KPI
10
23447578.234
20
6707538.608
30
15.386
0
POINT
8
M102KPO
10
23447577.804
20
6707538.318
30
15.21
0
POINT
8
M102KPO
10
23447578.078
20
6707538.513
30
15.237
0
POINT
8
M103PI
10
23447573.588
20
6707538.698
30
15.359
0
POINT
8
M103PI
10
23447573.545
20
6707538.143
30
15.281
0
POINT
8
M103PI
10
23447574.237
20
6707538.022
30
15.295
0
POINT
8
M103PI
10
23447574.252
20
6707538.656
30
15.367
0
POINT
8
M103PI
10
23447574.707
20
6707538.499
30
15.302
0
POINT
8
FOTOG4
10
23447586.908
20
6707556.683
30
16.393
0
POLYLINE
8
M103
66
1
70
8
0
VERTEX
8
M103
70
32
10
23447574.987
20
6707538.081
30
15.242
0
VERTEX
8
M103
70
32
10
23447575.003
20
6707538.316
30
15.252
0
VERTEX
8
M103
70
32
10
23447575.026
20
6707538.452
30
15.296
0
VERTEX
8
M103
70
32
10
23447574.807
20
6707538.868
30
15.354
0
VERTEX
8
M103
70
32
10
23447574.147
20
6707539.036
30
15.418
0
VERTEX
8
M103
70
32
10
23447574.127
20
6707539.05
30
15.441
0
VERTEX
8
M103
70
32
10
23447573.385
20
6707538.946
30
15.396
0
VERTEX
8
M103
70
32
10
23447573.35
20
6707538.789
30
15.365
0
VERTEX
8
M103
70
32
10
23447573.454
20
6707538.658
30
15.351
0
VERTEX
8
M103
70
32
10
23447573.373
20
6707538.152
30
15.288
0
VERTEX
8
M103
70
32
10
23447573.506
20
6707538.113
30
15.28
0
SEQEND
0
POINT
8
FOTOG4
10
23447586.937
20
6707557.168
30
16.362
0
POINT
8
FOTOG4
10
23447587.279
20
6707558.159
30
16.398
0
POINT
8
FOTOG4
10
23447587.944
20
6707558.096
30
16.348
0
POINT
8
FOTOG4
10
23447589.461
20
6707558.104
30
16.188
0
POINT
8
FOTOG4
10
23447589.98
20
6707558.127
30
16.154
0
POINT
8
FOTOG4
10
23447591.134
20
6707557.65
30
16.053
0
POINT
8
FOTOG4
10
23447591.13
20
6707556.625
30
16.023
0
POINT
8
FOTOG4
10
23447590.83
20
6707555.896
30
16.118
0
POINT
8
M101PI
10
23447574.463
20
6707535.499
30
15.02
0
POINT
8
M101PI
10
23447574.339
20
6707534.755
30
14.983
0
POINT
8
M101PI
10
23447574.516
20
6707533.678
30
14.941
0
POINT
8
M101PI
10
23447574.586
20
6707533.062
30
14.892
0
POINT
8
OJA2
10
23447574.243
20
6707532.832
30
14.895
0
POLYLINE
8
OJA2
66
1
70
8
0
VERTEX
8
OJA2
70
32
10
23447574.127
20
6707533.155
30
14.843
0
VERTEX
8
OJA2
70
32
10
23447574.011
20
6707533.889
30
14.985
0
VERTEX
8
OJA2
70
32
10
23447573.963
20
6707534.952
30
15.034
0
VERTEX
8
OJA2
70
32
10
23447573.979
20
6707535.934
30
15.084
0
VERTEX
8
OJA2
70
32
10
23447575.048
20
6707535.938
30
15.13
0
VERTEX
8
OJA2
70
32
10
23447575.107
20
6707534.368
30
14.94
0
VERTEX
8
OJA2
70
32
10
23447575.033
20
6707533.968
30
15.031
0
VERTEX
8
OJA2
70
32
10
23447575.012
20
6707532.905
30
14.987
0
SEQEND
0
POLYLINE
8
OJA1
66
1
70
8
0
VERTEX
8
OJA1
70
32
10
23447574.011
20
6707539.028
30
15.507
0
VERTEX
8
OJA1
70
32
10
23447574.076
20
6707539.869
30
15.623
0
VERTEX
8
OJA1
70
32
10
23447574.965
20
6707539.983
30
15.62
0
SEQEND
0
POINT
8
M104PI
10
23447575.566
20
6707542.848
30
15.673
0
POLYLINE
8
OJA2
66
1
70
8
0
VERTEX
8
OJA2
70
32
10
23447576.034
20
6707543.99
30
15.825
0
VERTEX
8
OJA2
70
32
10
23447576.047
20
6707544.875
30
15.869
0
VERTEX
8
OJA2
70
32
10
23447576.054
20
6707545.923
30
16.0
0
VERTEX
8
OJA2
70
32
10
23447574.998
20
6707546.001
30
16.213
0
VERTEX
8
OJA2
70
32
10
23447575.007
20
6707545.044
30
15.954
0
VERTEX
8
OJA2
70
32
10
23447574.964
20
6707544.074
30
15.843
0
SEQEND
0
POINT
8
M104PI
10
23447575.19
20
6707542.514
30
15.648
0
POINT
8
M104PI
10
23447575.307
20
6707541.768
30
15.636
0
POINT
8
M104PI
10
23447575.454
20
6707541.19
30
15.591
0
POINT
8
M104PI
10
23447575.312
20
6707540.403
30
15.541
0
POINT
8
M104PI
10
23447574.492
20
6707539.36
30
15.413
0
POINT
8
M201PI
10
23447587.418
20
6707557.576
30
16.245
0
POLYLINE
8
M104
66
1
70
8
0
VERTEX
8
M104
70
32
10
23447574.813
20
6707539.045
30
15.359
0
VERTEX
8
M104
70
32
10
23447574.082
20
6707539.222
30
15.462
0
VERTEX
8
M104
70
32
10
23447574.123
20
6707539.848
30
15.531
0
VERTEX
8
M104
70
32
10
23447575.134
20
6707539.989
30
15.543
0
VERTEX
8
M104
70
32
10
23447574.956
20
6707541.031
30
15.631
0
VERTEX
8
M104
70
32
10
23447575.046
20
6707542.202
30
15.701
0
VERTEX
8
M104
70
32
10
23447575.01
20
6707543.314
30
15.735
0
VERTEX
8
M104
70
32
10
23447575.855
20
6707543.235
30
15.699
0
VERTEX
8
M104
70
32
10
23447575.935
20
6707541.974
30
15.669
0
VERTEX
8
M104
70
32
10
23447575.872
20
6707540.488
30
15.57
0
VERTEX
8
M104
70
32
10
23447575.531
20
6707540.484
30
15.601
0
VERTEX
8
M104
70
32
10
23447575.41
20
6707539.931
30
15.48
0
VERTEX
8
M104
70
32
10
23447575.482
20
6707539.687
30
15.391
0
SEQEND
0
POINT
8
M201PI
10
23447587.361
20
6707556.618
30
16.295
0
POINT
8
M201PI
10
23447588.091
20
6707556.49
30
16.28
0
POINT
8
M201PI
10
23447588.104
20
6707557.434
30
16.27
0
POINT
8
M201PI
10
23447588.765
20
6707557.536
30
16.251
0
POINT
8
M201PI
10
23447589.771
20
6707557.558
30
16.141
0
POINT
8
M201PI
10
23447590.699
20
6707557.665
30
16.02
0
POINT
8
M201PI
10
23447590.714
20
6707556.913
30
16.037
0
POINT
8
M201PI
10
23447589.876
20
6707556.95
30
16.149
0
POINT
8
M201PI
10
23447589.059
20
6707556.992
30
16.267
0
POINT
8
M201PI
10
23447589.115
20
6707556.27
30
16.353
0
POINT
8
M201PI
10
23447590.245
20
6707556.306
30
16.12
0
POLYLINE
8
ALUE2
66
1
70
8
0
VERTEX
8
ALUE2
70
32
10
23447591.077
20
6707556.026
30
16.048
0
VERTEX
8
ALUE2
70
32
10
23447591.026
20
6707556.961
30
15.985
0
VERTEX
8
ALUE2
70
32
10
23447591.022
20
6707557.936
30
16.017
0
VERTEX
8
ALUE2
70
32
10
23447590.014
20
6707558.045
30
16.125
0
VERTEX
8
ALUE2
70
32
10
23447588.031
20
6707557.965
30
16.309
0
VERTEX
8
ALUE2
70
32
10
23447587.132
20
6707558.012
30
16.332
0
VERTEX
8
ALUE2
70
32
10
23447587.021
20
6707556.998
30
16.343
0
VERTEX
8
ALUE2
70
32
10
23447587.012
20
6707556.074
30
16.396
0
VERTEX
8
ALUE2
70
32
10
23447587.923
20
6707556.0
30
16.311
0
SEQEND
0
POINT
8
M301PI
10
23447577.532
20
6707559.207
30
17.179
0
POLYLINE
8
ALUE3
66
1
70
8
0
VERTEX
8
ALUE3
70
32
10
23447579.817
20
6707556.83
30
17.113
0
VERTEX
8
ALUE3
70
32
10
23447579.969
20
6707558.915
30
17.246
0
VERTEX
8
ALUE3
70
32
10
23447580.044
20
6707560.084
30
17.244
0
VERTEX
8
ALUE3
70
32
10
23447578.907
20
6707560.018
30
17.217
0
VERTEX
8
ALUE3
70
32
10
23447578.017
20
6707560.119
30
17.211
0
VERTEX
8
ALUE3
70
32
10
23447577.377
20
6707560.026
30
17.257
0
VERTEX
8
ALUE3
70
32
10
23447577.323
20
6707559.594
30
17.213
0
VERTEX
8
ALUE3
70
32
10
23447576.99
20
6707559.533
30
17.266
0
VERTEX
8
ALUE3
70
32
10
23447577.03
20
6707559.077
30
17.221
0
VERTEX
8
ALUE3
70
32
10
23447577.019
20
6707558.079
30
17.164
0
VERTEX
8
ALUE3
70
32
10
23447577.0
20
6707557.018
30
17.083
0
SEQEND
0
POINT
8
M301PI
10
23447578.787
20
6707559.346
30
17.138
0
POINT
8
M301PI
10
23447579.534
20
6707559.283
30
17.162
0
POINT
8
M301PI
10
23447579.541
20
6707558.377
30
17.198
0
POINT
8
M301PI
10
23447578.832
20
6707558.307
30
17.217
0
POINT
8
M301PI
10
23447577.513
20
6707558.194
30
17.21
0
POINT
8
M301PI
10
23447578.546
20
6707557.35
30
17.19
0
POINT
8
M301PI
10
23447579.493
20
6707557.269
30
17.174
0
POINT
8
ASP
10
23447576.717
20
6707552.453
30
18.129
0
POINT
8
M101PI
10
23447573.66
20
6707539.427
30
15.516
0
POINT
8
N1105
10
23447575.571
20
6707537.859
30
15.073
0
POINT
8
M105PI
10
23447575.656
20
6707537.932
30
15.122
0
POINT
8
M105PI
10
23447575.5
20
6707536.75
30
15.079
0
POINT
8
M105PI
10
23447575.689
20
6707536.162
30
15.018
0
POINT
8
M104KPI
10
23447576.162
20
6707539.882
30
15.461
0
POLYLINE
8
M104KI
66
1
70
8
0
VERTEX
8
M104KI
70
32
10
23447576.101
20
6707539.92
30
15.416
0
VERTEX
8
M104KI
70
32
10
23447576.1
20
6707539.791
30
15.407
0
VERTEX
8
M104KI
70
32
10
23447576.223
20
6707539.759
30
15.393
0
VERTEX
8
M104KI
70
32
10
23447576.254
20
6707539.771
30
15.364
0
VERTEX
8
M104KI
70
32
10
23447576.204
20
6707539.85
30
15.403
0
SEQEND
0
POINT
8
M104KPO
10
23447576.157
20
6707539.804
30
15.379
0
POINT
8
105RAUTA
10
23447575.962
20
6707536.707
30
15.113
0
POINT
8
101NAULA
10
23447574.354
20
6707533.474
30
14.822
0
POINT
8
M102PI
10
23447573.734
20
6707539.416
30
15.463
0
POINT
8
M104PI
10
23447573.47
20
6707539.599
30
15.435
0
POINT
8
M104PI
10
23447574.133
20
6707539.594
30
15.449
0
POINT
8
N2104
10
23447575.655
20
6707541.464
30
15.537
0
POINT
8
M301PI
10
23447579.684
20
6707558.832
30
17.182
0
POLYLINE
8
M103UUS
66
1
70
8
0
VERTEX
8
M103UUS
70
32
10
23447573.962
20
6707538.056
30
15.283
0
VERTEX
8
M103UUS
70
32
10
23447573.948
20
6707538.118
30
15.262
0
VERTEX
8
M103UUS
70
32
10
23447573.891
20
6707538.233
30
15.269
0
VERTEX
8
M103UUS
70
32
10
23447573.802
20
6707538.257
30
15.258
0
VERTEX
8
M103UUS
70
32
10
23447573.681
20
6707538.253
30
15.264
0
VERTEX
8
M103UUS
70
32
10
23447573.426
20
6707538.35
30
15.264
0
VERTEX
8
M103UUS
70
32
10
23447573.401
20
6707538.571
30
15.33
0
VERTEX
8
M103UUS
70
32
10
23447573.303
20
6707538.682
30
15.332
0
VERTEX
8
M103UUS
70
32
10
23447573.34
20
6707538.866
30
15.369
0
VERTEX
8
M103UUS
70
32
10
23447573.358
20
6707539.103
30
15.404
0
VERTEX
8
M103UUS
70
32
10
23447573.41
20
6707539.162
30
15.409
0
VERTEX
8
M103UUS
70
32
10
23447573.862
20
6707539.348
30
15.391
0
VERTEX
8
M103UUS
70
32
10
23447573.978
20
6707539.359
30
15.39
0
VERTEX
8
M103UUS
70
32
10
23447574.057
20
6707539.347
30
15.385
0
VERTEX
8
M103UUS
70
32
10
23447573.97
20
6707539.286
30
15.401
0
VERTEX
8
M103UUS
70
32
10
23447574.125
20
6707539.157
30
15.393
0
VERTEX
8
M103UUS
70
32
10
23447574.576
20
6707539.015
30
15.371
0
VERTEX
8
M103UUS
70
32
10
23447574.833
20
6707538.987
30
15.332
0
VERTEX
8
M103UUS
70
32
10
23447574.856
20
6707538.852
30
15.317
0
VERTEX
8
M103UUS
70
32
10
23447575.106
20
6707538.698
30
15.26
0
VERTEX
8
M103UUS
70
32
10
23447575.407
20
6707538.676
30
15.23
0
VERTEX
8
M103UUS
70
32
10
23447575.454
20
6707538.697
30
15.223
0
VERTEX
8
M103UUS
70
32
10
23447575.349
20
6707538.609
30
15.219
0
VERTEX
8
M103UUS
70
32
10
23447575.286
20
6707538.534
30
15.212
0
VERTEX
8
M103UUS
70
32
10
23447575.153
20
6707538.52
30
15.227
0
VERTEX
8
M103UUS
70
32
10
23447575.1
20
6707538.449
30
15.226
0
VERTEX
8
M103UUS
70
32
10
23447574.997
20
6707538.378
30
15.236
0
VERTEX
8
M103UUS
70
32
10
23447574.896
20
6707538.108
30
15.218
0
SEQEND
0
POINT
8
M103PI
10
23447575.191
20
6707539.707
30
15.399
0
POLYLINE
8
M103UUS
66
1
70
8
0
VERTEX
8
M103UUS
70
32
10
23447575.692
20
6707539.255
30
15.314
0
VERTEX
8
M103UUS
70
32
10
23447575.697
20
6707539.329
30
15.32
0
VERTEX
8
M103UUS
70
32
10
23447575.616
20
6707539.418
30
15.352
0
VERTEX
8
M103UUS
70
32
10
23447575.345
20
6707539.803
30
15.361
0
VERTEX
8
M103UUS
70
32
10
23447575.182
20
6707539.806
30
15.4
0
VERTEX
8
M103UUS
70
32
10
23447575.13
20
6707539.787
30
15.389
0
VERTEX
8
M103UUS
70
32
10
23447575.141
20
6707539.689
30
15.359
0
VERTEX
8
M103UUS
70
32
10
23447575.117
20
6707539.583
30
15.36
0
VERTEX
8
M103UUS
70
32
10
23447575.419
20
6707539.391
30
15.362
0
VERTEX
8
M103UUS
70
32
10
23447575.589
20
6707539.292
30
15.311
0
SEQEND
0
POINT
8
M103PI
10
23447575.406
20
6707539.505
30
15.366
0
POINT
8
M103PI
10
23447574.924
20
6707538.256
30
15.238
0
POINT
8
M103PI
10
23447574.572
20
6707538.338
30
15.275
0
POINT
8
M103PI
10
23447574.006
20
6707538.209
30
15.291
0
POINT
8
M103PI
10
23447573.709
20
6707538.727
30
15.357
0
POINT
8
M103PI
10
23447574.007
20
6707539.34
30
15.396
0
POINT
8
M103PI
10
23447574.402
20
6707538.892
30
15.368
0
POINT
8
M102PI
10
23447574.442
20
6707535.335
30
14.975
0
POINT
8
M102PI
10
23447574.535
20
6707533.33
30
14.878
0
POINT
8
M104KPI
10
23447573.322
20
6707538.993
30
15.517
0
POLYLINE
8
M104KI
66
1
70
8
0
VERTEX
8
M104KI
70
32
10
23447573.225
20
6707538.921
30
15.457
0
VERTEX
8
M104KI
70
32
10
23447573.305
20
6707538.961
30
15.454
0
VERTEX
8
M104KI
70
32
10
23447573.344
20
6707538.993
30
15.472
0
VERTEX
8
M104KI
70
32
10
23447573.272
20
6707539.069
30
15.48
0
SEQEND
0
POINT
8
M104KPI
10
23447573.301
20
6707539.03
30
15.444
0
POINT
8
M101PI
10
23447591.565
20
6707557.605
30
15.812
0
POINT
8
M101PI
10
23447591.589
20
6707557.036
30
15.866
0
POINT
8
M101PI
10
23447591.344
20
6707556.532
30
15.87
0
POINT
8
M202PI
10
23447587.519
20
6707557.42
30
16.236
0
POLYLINE
8
ALUE2
66
1
70
8
0
VERTEX
8
ALUE2
70
32
10
23447591.091
20
6707556.061
30
15.943
0
VERTEX
8
ALUE2
70
32
10
23447591.955
20
6707556.02
30
15.845
0
VERTEX
8
ALUE2
70
32
10
23447592.043
20
6707557.303
30
15.851
0
VERTEX
8
ALUE2
70
32
10
23447591.962
20
6707557.97
30
15.862
0
VERTEX
8
ALUE2
70
32
10
23447590.865
20
6707558.018
30
16.05
0
SEQEND
0
POINT
8
M202PI
10
23447588.078
20
6707556.621
30
16.232
0
POINT
8
M202PI
10
23447588.539
20
6707557.094
30
16.244
0
POINT
8
M202PI
10
23447588.769
20
6707557.602
30
16.206
0
POINT
8
M202PI
10
23447589.494
20
6707557.582
30
16.123
0
POINT
8
M202PI
10
23447589.764
20
6707556.89
30
16.116
0
POINT
8
M202PI
10
23447590.051
20
6707557.62
30
16.026
0
POINT
8
M202PI
10
23447590.287
20
6707557.101
30
16.033
0
POINT
8
M106PI
10
23447575.784
20
6707544.708
30
15.787
0
POINT
8
M106PI
10
23447575.289
20
6707545.057
30
15.838
0
POINT
8
M106PI
10
23447575.405
20
6707545.698
30
15.882
0
POINT
8
ASP
10
23447576.962
20
6707551.728
30
18.119
0
POINT
8
103PALU
10
23447574.172
20
6707539.41
30
15.348
0
POINT
8
103SAVES
10
23447573.554
20
6707539.365
30
15.33
0
POINT
8
R107PI
10
23447575.671
20
6707543.005
30
15.717
0
POINT
8
R107PI
10
23447575.785
20
6707542.563
30
15.706
0
POINT
8
R107PI
10
23447575.264
20
6707542.885
30
15.729
0
POINT
8
R107PI
10
23447575.433
20
6707542.416
30
15.653
0
POINT
8
R107PI
10
23447575.611
20
6707542.171
30
15.687
0
POINT
8
R107PI
10
23447575.815
20
6707541.956
30
15.776
0
POINT
8
R107PI
10
23447575.375
20
6707541.762
30
15.675
0
POINT
8
R107PI
10
23447574.965
20
6707541.472
30
15.775
0
POINT
8
R107PI
10
23447575.218
20
6707541.394
30
15.673
0
POINT
8
R107PI
10
23447575.225
20
6707541.121
30
15.63
0
POINT
8
R107PI
10
23447575.246
20
6707540.699
30
15.623
0
POINT
8
R107PI
10
23447575.296
20
6707540.437
30
15.641
0
POINT
8
R107PI
10
23447575.175
20
6707540.204
30
15.571
0
POINT
8
R107PI
10
23447575.138
20
6707541.704
30
15.725
0
POINT
8
R107PI
10
23447575.397
20
6707542.049
30
15.62
0
POINT
8
M108PI
10
23447575.41
20
6707540.703
30
15.491
0
POINT
8
M108PI
10
23447575.466
20
6707541.34
30
15.544
0
POINT
8
M108PI
10
23447575.222
20
6707542.213
30
15.575
0
POINT
8
M108PI
10
23447575.775
20
6707542.819
30
15.61
0
POINT
8
M108PI
10
23447575.236
20
6707542.876
30
15.628
0
POINT
8
R109
10
23447573.458
20
6707539.05
30
15.313
0
POINT
8
R109PI
10
23447573.509
20
6707538.939
30
15.295
0
POLYLINE
8
R109
66
1
70
8
0
VERTEX
8
R109
70
32
10
23447573.538
20
6707539.025
30
15.294
0
VERTEX
8
R109
70
32
10
23447573.555
20
6707538.921
30
15.286
0
VERTEX
8
R109
70
32
10
23447573.616
20
6707538.842
30
15.267
0
VERTEX
8
R109
70
32
10
23447573.583
20
6707538.763
30
15.275
0
VERTEX
8
R109
70
32
10
23447573.512
20
6707538.795
30
15.286
0
VERTEX
8
R109
70
32
10
23447573.484
20
6707538.849
30
15.298
0
VERTEX
8
R109
70
32
10
23447573.512
20
6707538.922
30
15.31
0
SEQEND
0
POINT
8
R109PI
10
23447573.541
20
6707538.91
30
15.284
0
POINT
8
R109PI
10
23447573.54
20
6707539.012
30
15.3
0
POINT
8
R109HN
10
23447573.54
20
6707538.942
30
15.293
0
POINT
8
R109PO
10
23447573.538
20
6707538.943
30
15.274
0
POINT
8
N3109
10
23447573.545
20
6707538.974
30
15.269
0
POINT
8
110LUU
10
23447573.973
20
6707539.429
30
15.382
0
POINT
8
107PO
10
23447575.654
20
6707543.086
30
15.631
0
POINT
8
107PO
10
23447575.646
20
6707542.469
30
15.599
0
POINT
8
107PO
10
23447575.513
20
6707542.047
30
15.635
0
POINT
8
107PO
10
23447575.328
20
6707541.91
30
15.603
0
POINT
8
107PO
10
23447575.329
20
6707541.699
30
15.611
0
POINT
8
107PO
10
23447575.214
20
6707541.481
30
15.601
0
POINT
8
107PO
10
23447575.585
20
6707542.773
30
15.597
0
POINT
8
107PO
10
23447575.309
20
6707543.216
30
15.655
0
POINT
8
107PO
10
23447575.295
20
6707541.805
30
15.58
0
POINT
8
107PO
10
23447575.485
20
6707541.212
30
15.528
0
POINT
8
107PO
10
23447575.445
20
6707540.465
30
15.553
0
POINT
8
107PO
10
23447575.427
20
6707540.26
30
15.538
0
POINT
8
107PO
10
23447575.242
20
6707540.647
30
15.553
0
POINT
8
107PO
10
23447575.452
20
6707541.327
30
15.526
0
POINT
8
107PO
10
23447575.158
20
6707541.98
30
15.645
0
POINT
8
107PO
10
23447575.56
20
6707541.672
30
15.514
0
POINT
8
107PO
10
23447575.258
20
6707541.2
30
15.536
0
POINT
8
ASP
10
23447576.787
20
6707550.787
30
18.122
0
POINT
8
M108PI
10
23447576.61
20
6707540.269
30
15.339
0
POINT
8
M108PI
10
23447576.507
20
6707540.732
30
15.419
0
POINT
8
M108PI
10
23447575.824
20
6707540.621
30
15.482
0
POINT
8
M104PI
10
23447576.478
20
6707540.45
30
15.446
0
POINT
8
M102PI
10
23447576.497
20
6707540.524
30
15.531
0
POLYLINE
8
M108
66
1
70
8
0
VERTEX
8
M108
70
32
10
23447575.991
20
6707539.734
30
15.35
0
VERTEX
8
M108
70
32
10
23447576.461
20
6707539.738
30
15.267
0
VERTEX
8
M108
70
32
10
23447577.03
20
6707539.929
30
15.382
0
VERTEX
8
M108
70
32
10
23447576.899
20
6707540.923
30
15.423
0
VERTEX
8
M108
70
32
10
23447575.858
20
6707540.899
30
15.52
0
VERTEX
8
M108
70
32
10
23447575.857
20
6707542.058
30
15.593
0
VERTEX
8
M108
70
32
10
23447575.928
20
6707543.099
30
15.646
0
VERTEX
8
M108
70
32
10
23447575.152
20
6707542.528
30
15.623
0
VERTEX
8
M108
70
32
10
23447575.062
20
6707541.072
30
15.59
0
VERTEX
8
M108
70
32
10
23447575.024
20
6707540.28
30
15.538
0
SEQEND
0
POINT
8
104RAUTA
10
23447576.325
20
6707540.855
30
15.459
0
POLYLINE
8
M108
66
1
70
8
0
VERTEX
8
M108
70
32
10
23447575.053
20
6707540.817
30
15.561
0
VERTEX
8
M108
70
32
10
23447575.451
20
6707540.846
30
15.58
0
VERTEX
8
M108
70
32
10
23447575.838
20
6707540.863
30
15.525
0
VERTEX
8
M108
70
32
10
23447576.414
20
6707540.602
30
15.399
0
VERTEX
8
M108
70
32
10
23447576.685
20
6707540.455
30
15.361
0
VERTEX
8
M108
70
32
10
23447576.87
20
6707540.065
30
15.349
0
VERTEX
8
M108
70
32
10
23447576.868
20
6707540.906
30
15.425
0
VERTEX
8
M108
70
32
10
23447575.856
20
6707540.945
30
15.536
0
VERTEX
8
M108
70
32
10
23447575.863
20
6707540.992
30
15.515
0
SEQEND
0
POINT
8
M111PI
10
23447575.403
20
6707540.698
30
15.47
0
POINT
8
M111PI
10
23447575.944
20
6707540.651
30
15.473
0
POINT
8
M111PI
10
23447576.406
20
6707540.251
30
15.336
0
POINT
8
M111PI
10
23447576.554
20
6707540.044
30
15.292
0
POLYLINE
8
M111
66
1
70
8
0
VERTEX
8
M111
70
32
10
23447576.615
20
6707539.909
30
15.293
0
VERTEX
8
M111
70
32
10
23447576.633
20
6707540.103
30
15.321
0
VERTEX
8
M111
70
32
10
23447576.509
20
6707540.386
30
15.383
0
VERTEX
8
M111
70
32
10
23447576.371
20
6707540.445
30
15.409
0
VERTEX
8
M111
70
32
10
23447576.151
20
6707540.571
30
15.443
0
VERTEX
8
M111
70
32
10
23447575.805
20
6707540.741
30
15.484
0
VERTEX
8
M111
70
32
10
23447575.377
20
6707540.85
30
15.544
0
SEQEND
0
POLYLINE
8
M111
66
1
70
8
0
VERTEX
8
M111
70
32
10
23447575.298
20
6707540.629
30
15.518
0
VERTEX
8
M111
70
32
10
23447575.683
20
6707540.576
30
15.491
0
VERTEX
8
M111
70
32
10
23447575.928
20
6707540.509
30
15.467
0
VERTEX
8
M111
70
32
10
23447576.11
20
6707540.46
30
15.437
0
VERTEX
8
M111
70
32
10
23447576.267
20
6707540.429
30
15.424
0
VERTEX
8
M111
70
32
10
23447576.345
20
6707540.311
30
15.374
0
VERTEX
8
M111
70
32
10
23447576.343
20
6707539.915
30
15.296
0
SEQEND
0
POINT
8
R112PI
10
23447574.646
20
6707539.075
30
15.421
0
POLYLINE
8
R112
66
1
70
8
0
VERTEX
8
R112
70
32
10
23447574.807
20
6707539.235
30
15.319
0
VERTEX
8
R112
70
32
10
23447574.353
20
6707539.302
30
15.387
0
VERTEX
8
R112
70
32
10
23447573.917
20
6707539.379
30
15.38
0
VERTEX
8
R112
70
32
10
23447573.661
20
6707539.376
30
15.334
0
VERTEX
8
R112
70
32
10
23447573.665
20
6707539.351
30
15.305
0
VERTEX
8
R112
70
32
10
23447573.875
20
6707539.195
30
15.288
0
VERTEX
8
R112
70
32
10
23447574.255
20
6707539.015
30
15.317
0
VERTEX
8
R112
70
32
10
23447574.706
20
6707538.942
30
15.336
0
SEQEND
0
POINT
8
R112PI
10
23447574.429
20
6707539.136
30
15.472
0
POINT
8
R112PI
10
23447574.099
20
6707539.202
30
15.478
0
POINT
8
R112PI
10
23447573.878
20
6707539.241
30
15.418
0
POINT
8
R112PO
10
23447574.069
20
6707539.289
30
15.302
0
POINT
8
R113PI
10
23447571.18
20
6707538.305
30
15.343
0
POINT
8
R113PI
10
23447571.358
20
6707538.726
30
15.407
0
POINT
8
R113PO
10
23447571.378
20
6707538.706
30
15.253
0
POINT
8
R113PI
10
23447571.472
20
6707538.596
30
15.399
0
POINT
8
R113PI
10
23447571.792
20
6707538.405
30
15.417
0
POINT
8
R113PI
10
23447571.983
20
6707538.385
30
15.375
0
POINT
8
R113PI
10
23447571.209
20
6707538.744
30
15.384
0
POINT
8
R113PO
10
23447571.485
20
6707538.59
30
15.281
0
POINT
8
R113PO
10
23447571.992
20
6707538.486
30
15.251
0
POINT
8
R113PI
10
23447571.44
20
6707538.248
30
15.351
0
POINT
8
R113PO
10
23447571.378
20
6707538.258
30
15.126
0
POINT
8
R113PO
10
23447571.78
20
6707538.461
30
15.187
0
POINT
8
M114PI
10
23447571.211
20
6707538.188
30
15.218
0
POINT
8
M114PI
10
23447572.351
20
6707538.559
30
15.29
0
POINT
8
M114KERA
10
23447571.932
20
6707538.468
30
15.207
0
POLYLINE
8
OJA1
66
1
70
8
0
VERTEX
8
OJA1
70
32
10
23447573.026
20
6707539.089
30
15.508
0
VERTEX
8
OJA1
70
32
10
23447572.965
20
6707539.889
30
15.72
0
VERTEX
8
OJA1
70
32
10
23447573.928
20
6707539.989
30
15.642
0
VERTEX
8
OJA1
70
32
10
23447574.884
20
6707539.979
30
15.62
0
SEQEND
0
POINT
8
N4111
10
23447576.593
20
6707539.809
30
15.154
0
POLYLINE
8
M202
66
1
70
8
0
VERTEX
8
M202
70
32
10
23447587.091
20
6707556.244
30
16.182
0
VERTEX
8
M202
70
32
10
23447587.34
20
6707556.597
30
16.184
0
VERTEX
8
M202
70
32
10
23447587.882
20
6707556.773
30
16.215
0
VERTEX
8
M202
70
32
10
23447588.375
20
6707557.051
30
16.232
0
VERTEX
8
M202
70
32
10
23447588.812
20
6707557.44
30
16.182
0
VERTEX
8
M202
70
32
10
23447589.628
20
6707557.153
30
16.073
0
VERTEX
8
M202
70
32
10
23447590.322
20
6707557.297
30
16.024
0
VERTEX
8
M202
70
32
10
23447590.772
20
6707557.867
30
15.955
0
SEQEND
0
POINT
8
M206PI
10
23447589.6
20
6707557.754
30
16.076
0
POLYLINE
8
M206
66
1
70
8
0
VERTEX
8
M206
70
32
10
23447589.727
20
6707557.926
30
16.062
0
VERTEX
8
M206
70
32
10
23447589.895
20
6707557.372
30
16.052
0
VERTEX
8
M206
70
32
10
23447589.627
20
6707557.146
30
16.092
0
VERTEX
8
M206
70
32
10
23447589.406
20
6707557.143
30
16.125
0
VERTEX
8
M206
70
32
10
23447589.051
20
6707557.269
30
16.177
0
VERTEX
8
M206
70
32
10
23447588.622
20
6707557.472
30
16.188
0
VERTEX
8
M206
70
32
10
23447588.639
20
6707557.611
30
16.175
0
VERTEX
8
M206
70
32
10
23447589.007
20
6707557.796
30
16.144
0
SEQEND
0
POINT
8
M206PI
10
23447589.103
20
6707557.47
30
16.151
0
POINT
8
M205PI
10
23447588.816
20
6707557.219
30
16.437
0
POINT
8
M205PI
10
23447588.353
20
6707556.79
30
16.38
0
POINT
8
M205PI
10
23447587.587
20
6707556.788
30
16.367
0
POINT
8
M205PI
10
23447587.449
20
6707556.373
30
16.339
0
POINT
8
M205PI
10
23447588.314
20
6707556.304
30
16.395
0
POINT
8
M205PI
10
23447588.582
20
6707556.464
30
16.428
0
POINT
8
M205PI
10
23447588.909
20
6707556.815
30
16.383
0
POINT
8
M205PI
10
23447589.152
20
6707555.903
30
16.509
0
POINT
8
M205PI
10
23447589.274
20
6707555.579
30
16.508
0
POINT
8
M205PI
10
23447588.322
20
6707555.709
30
16.053
0
POINT
8
M205PI
10
23447591.113
20
6707557.86
30
15.708
0
POINT
8
M205PI
10
23447591.085
20
6707557.382
30
15.841
0
POINT
8
M205PI
10
23447590.703
20
6707556.418
30
15.88
0
POINT
8
M205PI
10
23447590.893
20
6707556.237
30
15.824
0
POINT
8
M205PI
10
23447591.51
20
6707556.335
30
15.643
0
POINT
8
M205PI
10
23447591.39
20
6707555.333
30
16.109
0
POINT
8
M205PI
10
23447591.067
20
6707557.41
30
16.119
0
POINT
8
M205PI
10
23447591.075
20
6707557.784
30
15.99
0
POINT
8
M203PI
10
23447589.344
20
6707556.773
30
16.281
0
POINT
8
M203PI
10
23447588.735
20
6707556.309
30
16.37
0
POINT
8
M203PI
10
23447588.481
20
6707555.176
30
16.292
0
POINT
8
M203PI
10
23447589.335
20
6707555.41
30
16.368
0
POINT
8
M203PI
10
23447589.603
20
6707555.664
30
16.346
0
POINT
8
M203PI
10
23447589.365
20
6707555.754
30
16.396
0
POINT
8
M203PI
10
23447589.593
20
6707555.322
30
16.311
0
POINT
8
M203PI
10
23447590.156
20
6707555.635
30
16.211
0
POINT
8
M203PI
10
23447590.125
20
6707555.672
30
16.156
0
POINT
8
M203PI
10
23447590.152
20
6707555.554
30
16.172
0
POINT
8
M203PI
10
23447590.717
20
6707555.876
30
16.065
0
POINT
8
M203PI
10
23447590.834
20
6707555.576
30
16.026
0
POINT
8
M203PI
10
23447590.844
20
6707556.073
30
15.993
0
POINT
8
M203PI
10
23447591.091
20
6707556.04
30
15.939
0
POINT
8
M203PI
10
23447589.291
20
6707556.882
30
16.27
0
POINT
8
M203PI
10
23447590.166
20
6707556.916
30
16.045
0
POINT
8
M203PO
10
23447589.348
20
6707557.002
30
16.151
0
POINT
8
M203PO
10
23447589.16
20
6707556.649
30
16.221
0
POINT
8
M203PO
10
23447589.456
20
6707556.587
30
16.176
0
POINT
8
M203PO
10
23447589.577
20
6707556.669
30
16.119
0
POINT
8
M203PO
10
23447589.871
20
6707556.148
30
16.188
0
POINT
8
M203PO
10
23447589.612
20
6707555.671
30
16.273
0
POINT
8
M203PO
10
23447589.409
20
6707555.713
30
16.331
0
POINT
8
M203PO
10
23447589.112
20
6707555.411
30
16.274
0
POINT
8
M203PO
10
23447589.316
20
6707555.344
30
16.305
0
POINT
8
M203PO
10
23447589.165
20
6707555.106
30
16.273
0
POINT
8
M203PO
10
23447589.596
20
6707555.322
30
16.231
0
POINT
8
M203PO
10
23447589.707
20
6707555.668
30
16.229
0
POINT
8
M203PO
10
23447590.105
20
6707555.857
30
16.059
0
POINT
8
M203PO
10
23447590.233
20
6707555.564
30
16.096
0
POINT
8
M203PO
10
23447590.277
20
6707555.255
30
16.061
0
POINT
8
M203PO
10
23447590.939
20
6707555.426
30
15.901
0
POINT
8
M203PO
10
23447591.007
20
6707555.547
30
15.912
0
POINT
8
M203PO
10
23447590.8
20
6707555.824
30
15.954
0
POINT
8
M203PO
10
23447591.051
20
6707556.161
30
15.85
0
POINT
8
M203PO
10
23447590.66
20
6707556.379
30
15.995
0
POINT
8
M203PO
10
23447590.297
20
6707556.176
30
15.998
0
POINT
8
M203PO
10
23447589.877
20
6707556.029
30
16.181
0
POINT
8
M203PO
10
23447589.578
20
6707555.893
30
16.292
0
POINT
8
M203PO
10
23447591.333
20
6707556.63
30
15.796
0
POINT
8
M205PO
10
23447591.013
20
6707556.857
30
15.863
0
POINT
8
206PUUKO
10
23447590.36
20
6707557.131
30
16.003
0
POINT
8
206RAUTA
10
23447589.963
20
6707556.828
30
15.995
0
POINT
8
R302PI
10
23447580.393
20
6707558.718
30
17.182
0
POINT
8
R302PI
10
23447579.801
20
6707558.414
30
17.203
0
POINT
8
R302PI
10
23447579.655
20
6707559.711
30
17.192
0
POINT
8
R302PI
10
23447579.144
20
6707559.694
30
17.183
0
POINT
8
R302PI
10
23447578.638
20
6707559.28
30
17.269
0
POINT
8
R302PI
10
23447578.961
20
6707558.983
30
17.166
0
POINT
8
R302PI
10
23447578.771
20
6707558.532
30
17.217
0
POINT
8
R302PI
10
23447578.31
20
6707558.509
30
17.285
0
POINT
8
R302PI
10
23447577.735
20
6707558.29
30
17.262
0
POINT
8
R302PI
10
23447577.272
20
6707558.504
30
17.259
0
POINT
8
R302PI
10
23447576.775
20
6707558.194
30
17.134
0
POINT
8
R302PI
10
23447576.644
20
6707557.617
30
17.113
0
POINT
8
R302PI
10
23447577.437
20
6707557.532
30
17.147
0
POINT
8
R302PI
10
23447577.478
20
6707557.122
30
17.113
0
POINT
8
R302PI
10
23447577.396
20
6707556.605
30
17.068
0
POINT
8
R302PI
10
23447578.209
20
6707556.538
30
17.195
0
POINT
8
R302PI
10
23447578.501
20
6707556.649
30
17.134
0
POINT
8
R302PI
10
23447578.249
20
6707556.938
30
17.2
0
POINT
8
R302PI
10
23447578.596
20
6707557.77
30
17.212
0
POINT
8
R302PI
10
23447578.825
20
6707557.353
30
17.194
0
POINT
8
R302PI
10
23447579.009
20
6707557.192
30
17.103
0
POINT
8
R302PI
10
23447579.185
20
6707556.801
30
17.026
0
POINT
8
R302PI
10
23447579.534
20
6707556.847
30
17.101
0
POINT
8
R302PI
10
23447579.597
20
6707557.249
30
17.147
0
POINT
8
R302PI
10
23447579.376
20
6707557.561
30
17.266
0
POINT
8
R302PI
10
23447579.843
20
6707557.701
30
17.247
0
POINT
8
R302PI
10
23447579.805
20
6707558.395
30
17.208
0
POINT
8
R302PI
10
23447580.458
20
6707558.148
30
17.141
0
POINT
8
R302PI
10
23447580.243
20
6707557.415
30
17.171
0
POINT
8
R302PI
10
23447579.834
20
6707557.357
30
17.156
0
POINT
8
R302PI
10
23447580.769
20
6707556.856
30
17.029
0
POINT
8
R302PI
10
23447580.257
20
6707556.654
30
17.122
0
POINT
8
R302PI
10
23447579.944
20
6707556.42
30
17.098
0
POINT
8
R302PI
10
23447579.781
20
6707556.041
30
17.02
0
POINT
8
R302PI
10
23447579.917
20
6707555.787
30
17.074
0
POINT
8
R302PI
10
23447579.862
20
6707555.334
30
16.737
0
POINT
8
R302PI
10
23447579.66
20
6707555.347
30
16.868
0
POINT
8
R302PI
10
23447580.403
20
6707555.562
30
16.899
0
POINT
8
R302PI
10
23447581.025
20
6707556.106
30
16.876
0
POINT
8
R302PI
10
23447581.659
20
6707556.315
30
16.831
0
POINT
8
R302PI
10
23447582.234
20
6707556.467
30
16.774
0
POINT
8
R302PI
10
23447582.542
20
6707556.44
30
16.711
0
POINT
8
R302PI
10
23447581.718
20
6707555.522
30
16.744
0
POINT
8
R302PI
10
23447581.363
20
6707555.283
30
16.749
0
POINT
8
R302PI
10
23447581.677
20
6707554.59
30
16.612
0
POINT
8
R302PI
10
23447581.13
20
6707554.272
30
16.685
0
POINT
8
R302PI
10
23447580.644
20
6707554.971
30
16.776
0
POINT
8
R302PI
10
23447580.038
20
6707554.378
30
16.771
0
POINT
8
R302PI
10
23447579.749
20
6707553.745
30
16.71
0
POINT
8
R302PI
10
23447579.373
20
6707554.351
30
16.784
0
POINT
8
R302PI
10
23447579.479
20
6707554.974
30
16.87
0
POINT
8
R302PI
10
23447578.749
20
6707554.395
30
16.807
0
POINT
8
R302PI
10
23447578.832
20
6707554.694
30
16.874
0
POINT
8
R302PI
10
23447578.912
20
6707555.774
30
16.949
0
POINT
8
R302PI
10
23447578.591
20
6707556.057
30
17.162
0
POINT
8
R302PI
10
23447578.199
20
6707556.274
30
17.179
0
POINT
8
R302PI
10
23447578.051
20
6707555.682
30
16.955
0
POINT
8
R302PI
10
23447578.162
20
6707554.92
30
16.915
0
POINT
8
R302PI
10
23447578.072
20
6707554.453
30
16.658
0
POINT
8
R302PI
10
23447577.51
20
6707554.076
30
16.701
0
POINT
8
R302PI
10
23447577.023
20
6707555.96
30
16.913
0
POLYLINE
8
R302
66
1
70
8
0
VERTEX
8
R302
70
32
10
23447576.692
20
6707555.173
30
16.697
0
VERTEX
8
R302
70
32
10
23447576.276
20
6707556.447
30
16.82
0
VERTEX
8
R302
70
32
10
23447576.39
20
6707556.808
30
16.904
0
VERTEX
8
R302
70
32
10
23447576.791
20
6707557.598
30
17.071
0
VERTEX
8
R302
70
32
10
23447576.96
20
6707558.215
30
17.099
0
VERTEX
8
R302
70
32
10
23447577.1
20
6707558.698
30
17.089
0
VERTEX
8
R302
70
32
10
23447577.644
20
6707558.933
30
17.15
0
VERTEX
8
R302
70
32
10
23447578.354
20
6707559.079
30
17.079
0
VERTEX
8
R302
70
32
10
23447578.845
20
6707559.387
30
17.116
0
VERTEX
8
R302
70
32
10
23447579.81
20
6707559.873
30
17.126
0
SEQEND
0
POLYLINE
8
R302
66
1
70
8
0
VERTEX
8
R302
70
32
10
23447579.996
20
6707559.858
30
17.245
0
VERTEX
8
R302
70
32
10
23447580.958
20
6707559.37
30
17.148
0
VERTEX
8
R302
70
32
10
23447581.82
20
6707558.759
30
16.998
0
VERTEX
8
R302
70
32
10
23447582.448
20
6707558.367
30
16.888
0
VERTEX
8
R302
70
32
10
23447582.945
20
6707558.015
30
16.836
0
VERTEX
8
R302
70
32
10
23447583.262
20
6707557.598
30
16.762
0
VERTEX
8
R302
70
32
10
23447583.116
20
6707556.895
30
16.718
0
SEQEND
0
POINT
8
KK1
10
23447593.059
20
6707563.964
30
15.871
0
POLYLINE
8
R302
66
1
70
8
0
VERTEX
8
R302
70
32
10
23447582.904
20
6707556.947
30
16.654
0
VERTEX
8
R302
70
32
10
23447582.834
20
6707556.488
30
16.575
0
VERTEX
8
R302
70
32
10
23447582.519
20
6707556.139
30
16.573
0
VERTEX
8
R302
70
32
10
23447582.023
20
6707555.483
30
16.585
0
VERTEX
8
R302
70
32
10
23447581.942
20
6707554.543
30
16.533
0
VERTEX
8
R302
70
32
10
23447581.72
20
6707554.099
30
16.534
0
VERTEX
8
R302
70
32
10
23447580.739
20
6707553.774
30
16.564
0
VERTEX
8
R302
70
32
10
23447579.701
20
6707553.23
30
16.578
0
VERTEX
8
R302
70
32
10
23447578.83
20
6707553.04
30
16.578
0
VERTEX
8
R302
70
32
10
23447578.152
20
6707553.221
30
16.553
0
VERTEX
8
R302
70
32
10
23447577.186
20
6707553.494
30
16.602
0
SEQEND
0
POINT
8
POMAPI
10
23447592.515
20
6707563.44
30
15.642
0
POLYLINE
8
KK1
66
1
70
8
0
VERTEX
8
KK1
70
32
10
23447592.855
20
6707563.022
30
15.784
0
VERTEX
8
KK1
70
32
10
23447592.125
20
6707564.205
30
15.807
0
SEQEND
0
POINT
8
KK2
10
23447593.006
20
6707544.332
30
15.189
0
POINT
8
KK4
10
23447592.99
20
6707544.308
30
15.184
0
POINT
8
POMAPI
10
23447593.649
20
6707543.66
30
14.952
0
POLYLINE
8
KK4
66
1
70
8
0
VERTEX
8
KK4
70
32
10
23447592.983
20
6707544.319
30
15.183
0
VERTEX
8
KK4
70
32
10
23447594.029
20
6707544.164
30
15.047
0
VERTEX
8
KK4
70
32
10
23447593.991
20
6707543.368
30
15.098
0
VERTEX
8
KK4
70
32
10
23447593.177
20
6707543.43
30
15.147
0
SEQEND
0
POINT
8
ASP
10
23447576.285
20
6707553.771
30
18.336
0
POINT
8
POMAPI
10
23447597.843
20
6707557.043
30
14.916
0
POLYLINE
8
KK2
66
1
70
8
0
VERTEX
8
KK2
70
32
10
23447598.06
20
6707556.402
30
14.983
0
VERTEX
8
KK2
70
32
10
23447597.173
20
6707556.464
30
15.033
0
VERTEX
8
KK2
70
32
10
23447597.214
20
6707557.339
30
15.163
0
VERTEX
8
KK2
70
32
10
23447598.125
20
6707557.123
30
14.956
0
SEQEND
0
POINT
8
POMAPI
10
23447592.868
20
6707548.224
30
15.148
0
POINT
8
R303PO
10
23447578.306
20
6707558.425
30
17.063
0
POLYLINE
8
KK3
66
1
70
8
0
VERTEX
8
KK3
70
32
10
23447592.382
20
6707548.63
30
15.318
0
VERTEX
8
KK3
70
32
10
23447593.226
20
6707548.576
30
15.163
0
VERTEX
8
KK3
70
32
10
23447593.215
20
6707547.826
30
15.191
0
SEQEND
0
POINT
8
R303PO
10
23447579.432
20
6707558.132
30
17.146
0
POINT
8
R303PO
10
23447579.658
20
6707557.546
30
17.14
0
POINT
8
R302PO
10
23447578.812
20
6707557.025
30
17.007
0
POINT
8
R302PO
10
23447579.288
20
6707557.102
30
17.009
0
POINT
8
R302PO
10
23447579.381
20
6707556.67
30
16.925
0
POINT
8
R302PO
10
23447578.14
20
6707557.26
30
17.095
0
POINT
8
R302PO
10
23447577.55
20
6707557.607
30
17.037
0
POINT
8
R302PO
10
23447577.784
20
6707556.826
30
16.949
0
POINT
8
R302PO
10
23447578.394
20
6707558.214
30
17.149
0
POINT
8
R302PO
10
23447579.322
20
6707558.86
30
17.051
0
POINT
8
304LUU
10
23447579.653
20
6707556.824
30
17.028
0
POLYLINE
8
ALUE3
66
1
70
8
0
VERTEX
8
ALUE3
70
32
10
23447579.994
20
6707560.062
30
17.188
0
VERTEX
8
ALUE3
70
32
10
23447579.942
20
6707558.968
30
17.243
0
VERTEX
8
ALUE3
70
32
10
23447580.977
20
6707558.849
30
17.14
0
VERTEX
8
ALUE3
70
32
10
23447581.013
20
6707558.012
30
17.037
0
VERTEX
8
ALUE3
70
32
10
23447581.009
20
6707556.982
30
16.969
0
VERTEX
8
ALUE3
70
32
10
23447581.95
20
6707556.973
30
16.817
0
VERTEX
8
ALUE3
70
32
10
23447583.052
20
6707556.984
30
16.733
0
VERTEX
8
ALUE3
70
32
10
23447583.091
20
6707556.066
30
16.62
0
VERTEX
8
ALUE3
70
32
10
23447582.076
20
6707555.967
30
16.668
0
VERTEX
8
ALUE3
70
32
10
23447581.965
20
6707555.161
30
16.604
0
VERTEX
8
ALUE3
70
32
10
23447582.036
20
6707554.005
30
16.574
0
VERTEX
8
ALUE3
70
32
10
23447581.003
20
6707553.994
30
16.681
0
VERTEX
8
ALUE3
70
32
10
23447580.993
20
6707553.122
30
16.64
0
VERTEX
8
ALUE3
70
32
10
23447580.154
20
6707552.997
30
16.597
0
VERTEX
8
ALUE3
70
32
10
23447579.086
20
6707552.965
30
16.671
0
VERTEX
8
ALUE3
70
32
10
23447578.144
20
6707552.912
30
16.618
0
VERTEX
8
ALUE3
70
32
10
23447577.057
20
6707552.983
30
16.647
0
VERTEX
8
ALUE3
70
32
10
23447576.996
20
6707555.044
30
16.773
0
VERTEX
8
ALUE3
70
32
10
23447576.026
20
6707555.064
30
16.761
0
VERTEX
8
ALUE3
70
32
10
23447576.133
20
6707556.517
30
16.896
0
VERTEX
8
ALUE3
70
32
10
23447576.074
20
6707556.932
30
17.015
0
VERTEX
8
ALUE3
70
32
10
23447576.045
20
6707559.114
30
17.127
0
VERTEX
8
ALUE3
70
32
10
23447576.907
20
6707559.077
30
17.231
0
VERTEX
8
ALUE3
70
32
10
23447577.027
20
6707559.544
30
17.241
0
SEQEND
0
POINT
8
M304PI
10
23447579.858
20
6707558.955
30
17.139
0
POLYLINE
8
ALUE3B
66
1
70
8
0
VERTEX
8
ALUE3B
70
32
10
23447576.178
20
6707556.582
30
16.889
0
VERTEX
8
ALUE3B
70
32
10
23447577.219
20
6707556.488
30
16.927
0
VERTEX
8
ALUE3B
70
32
10
23447577.947
20
6707556.498
30
17.088
0
VERTEX
8
ALUE3B
70
32
10
23447579.896
20
6707556.396
30
17.025
0
VERTEX
8
ALUE3B
70
32
10
23447579.927
20
6707557.806
30
17.11
0
VERTEX
8
ALUE3B
70
32
10
23447579.963
20
6707558.844
30
17.2
0
SEQEND
0
POINT
8
M304PI
10
23447579.778
20
6707558.137
30
17.135
0
POINT
8
M304PI
10
23447579.515
20
6707557.05
30
17.024
0
POINT
8
M304PI
10
23447578.536
20
6707557.696
30
17.19
0
POINT
8
M304PI
10
23447578.409
20
6707558.492
30
17.084
0
POINT
8
M304PI
10
23447577.917
20
6707559.217
30
17.111
0
POINT
8
M304PI
10
23447577.238
20
6707558.495
30
17.113
0
POINT
8
M304PI
10
23447577.234
20
6707557.529
30
17.057
0
POINT
8
M304PI
10
23447576.543
20
6707557.455
30
16.991
0
POINT
8
M304PI
10
23447578.123
20
6707557.08
30
17.138
0
POINT
8
M304PI
10
23447578.672
20
6707557.664
30
17.162
0
POINT
8
R207PI
10
23447589.195
20
6707556.608
30
16.273
0
POINT
8
R207PI
10
23447589.185
20
6707556.214
30
16.313
0
POINT
8
R207PI
10
23447589.361
20
6707556.035
30
16.352
0
POINT
8
R207PI
10
23447589.503
20
6707556.119
30
16.263
0
POINT
8
R207PI
10
23447589.48
20
6707556.477
30
16.254
0
POINT
8
R207PI
10
23447589.631
20
6707556.594
30
16.19
0
POLYLINE
8
R203
66
1
70
8
0
VERTEX
8
R203
70
32
10
23447587.71
20
6707556.361
30
16.196
0
VERTEX
8
R203
70
32
10
23447587.934
20
6707556.877
30
16.221
0
VERTEX
8
R203
70
32
10
23447588.601
20
6707557.042
30
16.226
0
VERTEX
8
R203
70
32
10
23447589.257
20
6707557.178
30
16.136
0
VERTEX
8
R203
70
32
10
23447589.861
20
6707557.178
30
16.042
0
VERTEX
8
R203
70
32
10
23447590.265
20
6707557.442
30
16.008
0
VERTEX
8
R203
70
32
10
23447590.766
20
6707557.137
30
15.936
0
VERTEX
8
R203
70
32
10
23447591.152
20
6707556.687
30
15.908
0
SEQEND
0
POLYLINE
8
ALUE2
66
1
70
8
0
VERTEX
8
ALUE2
70
32
10
23447587.972
20
6707556.011
30
16.305
0
VERTEX
8
ALUE2
70
32
10
23447588.102
20
6707554.958
30
16.346
0
VERTEX
8
ALUE2
70
32
10
23447589.144
20
6707554.898
30
16.354
0
VERTEX
8
ALUE2
70
32
10
23447590.045
20
6707555.018
30
16.245
0
VERTEX
8
ALUE2
70
32
10
23447591.023
20
6707554.981
30
16.1
0
VERTEX
8
ALUE2
70
32
10
23447592.145
20
6707555.091
30
15.862
0
VERTEX
8
ALUE2
70
32
10
23447592.057
20
6707555.961
30
15.855
0
VERTEX
8
ALUE2
70
32
10
23447592.088
20
6707556.675
30
15.84
0
VERTEX
8
ALUE2
70
32
10
23447592.013
20
6707557.241
30
15.836
0
VERTEX
8
ALUE2
70
32
10
23447592.015
20
6707557.985
30
15.848
0
SEQEND
0
POLYLINE
8
ALUE2B
66
1
70
8
0
VERTEX
8
ALUE2B
70
32
10
23447591.997
20
6707556.843
30
15.783
0
VERTEX
8
ALUE2B
70
32
10
23447591.127
20
6707556.944
30
15.922
0
VERTEX
8
ALUE2B
70
32
10
23447590.002
20
6707556.943
30
16.015
0
VERTEX
8
ALUE2B
70
32
10
23447589.097
20
6707556.991
30
16.221
0
VERTEX
8
ALUE2B
70
32
10
23447589.071
20
6707556.139
30
16.357
0
VERTEX
8
ALUE2B
70
32
10
23447589.073
20
6707554.924
30
16.355
0
VERTEX
8
ALUE2B
70
32
10
23447590.006
20
6707555.009
30
16.247
0
VERTEX
8
ALUE2B
70
32
10
23447590.922
20
6707555.011
30
16.071
0
SEQEND
0
ENDSEC
0
EOF
